<svg height="480pt" viewBox="-16 0 480 480" width="480pt" xmlns="http://www.w3.org/2000/svg"><path d="m336 472h-192v-272h192zm0 0" fill="#45a7d1"/><path d="m435.257812 296.289062-38.296874-62.226562c-13.027344-21.167969-36.105469-34.0625-60.960938-34.0625h-40l-56 80-56-80h-40c-24.855469 0-47.933594 12.894531-60.960938 34.0625l-11.039062 17.9375v-60h-64v144c0 17.671875 14.328125 32 32 32h14.265625c11.03125 0 21.285156-5.683594 27.132813-15.039062l30.601562-48.960938 32-56v224h192v-104h72c17.671875 0 32-14.328125 32-32v-22.945312c0-5.917969-1.640625-11.722657-4.742188-16.765626zm-99.257812 7.710938v-56l32 56zm0 0" fill="#e0e0de"/><path d="m240 200h-56l32.664062 46.664062zm0 0" fill="#4db7e5"/><path d="m240 200h56l-32.664062 46.664062zm0 0" fill="#4db7e5"/><path d="m435.257812 296.289062-38.296874-62.226562c-4.71875-7.648438-10.835938-14.339844-18.03125-19.71875-8.503907 18.898438-19.164063 36.753906-31.761719 53.207031l20.832031 36.449219h-32v-22.695312c-53.945312 62.695312-131.105469 101.160156-192 123.535156v67.160156h192v-104h72c17.671875 0 32-14.328125 32-32v-22.945312c0-5.917969-1.640625-11.722657-4.742188-16.765626zm0 0" fill="#d6d6d4"/><path d="m168 56h144v72c0 39.765625-32.234375 72-72 72s-72-32.234375-72-72zm0 0" fill="#fec9a3"/><path d="m280 56v72c-.023438 33.582031-23.257812 62.6875-56 70.152344 21.359375 4.941406 43.808594-.148438 60.949219-13.8125 17.144531-13.667969 27.105469-34.414063 27.050781-56.339844v-72zm0 0" fill="#fec093"/><path d="m136 8h128c26.507812 0 48 21.492188 48 48h-144l-3.375-1.6875c-17.542969-8.769531-28.625-26.699219-28.625-46.3125zm0 0" fill="#95573a"/><path d="m264 8h-32c26.507812 0 48 21.492188 48 48h32c0-26.507812-21.492188-48-48-48zm0 0" fill="#8f4d2e"/><path d="m312 120h-56l-16-16-16 16h-56c-8.835938 0-16-7.164062-16-16v-32c0-8.835938 7.164062-16 16-16h144c8.835938 0 16 7.164062 16 16v32c0 8.835938-7.164062 16-16 16zm0 0" fill="#4db7e5"/><g fill="#c7c7c5"><path d="m64 320c-4.417969 0-8-3.582031-8-8v-120c0-4.417969 3.582031-8 8-8s8 3.582031 8 8v120c0 4.417969-3.582031 8-8 8zm0 0"/><path d="m232 272h16v200h-16zm0 0"/><path d="m144 288h56v16h-56zm0 0"/><path d="m144 400h56v16h-56zm0 0"/></g><path d="m230.113281 160h-6.113281v-16h6.113281c10.519531-.015625 20.894531-2.46875 30.3125-7.160156l7.148438 14.320312c-11.636719 5.796875-24.460938 8.824219-37.460938 8.839844zm0 0" fill="#f7a468"/><path d="m96 16h-16v-16h-16v16h-16v16h16v16h16v-16h16zm0 0" fill="#ffb531"/><path d="m24 48c-13.253906 0-24 10.746094-24 24s10.746094 24 24 24 24-10.746094 24-24-10.746094-24-24-24zm0 32c-4.417969 0-8-3.582031-8-8s3.582031-8 8-8 8 3.582031 8 8-3.582031 8-8 8zm0 0" fill="#ffb531"/><path d="m64 96h48v152c0 13.253906-10.746094 24-24 24s-24-10.746094-24-24zm0 0" fill="#4db7e5"/><path d="m64 248c0 13.253906 10.746094 24 24 24s24-10.746094 24-24v-24h-48zm0 0" fill="#ffb531"/><path d="m112 128h-72c-17.671875 0-32 14.328125-32 32v32h104zm0 0" fill="#fec9a3"/><path d="m312 56-60 60 4 4h56c8.835938 0 16-7.164062 16-16v-32c0-8.835938-7.164062-16-16-16zm0 0" fill="#48add9"/><path d="m192 80h16v16h-16zm0 0" fill="#2a71ad"/><path d="m272 80h16v16h-16zm0 0" fill="#2a71ad"/><path d="m272 344v-72h32v72l43.199219 57.601562c3.117187 4.152344 4.800781 9.207032 4.800781 14.398438 0 13.253906-10.746094 24-24 24h-80c-13.253906 0-24-10.746094-24-24 0-5.191406 1.683594-10.246094 4.800781-14.398438zm0 0" fill="#4db7e5"/><path d="m350.59375 408c2.636719 7.339844 1.527344 15.507812-2.96875 21.878906-4.5 6.371094-11.824219 10.148438-19.625 10.121094h-80c-7.800781.027344-15.125-3.75-19.625-10.121094-4.496094-6.371094-5.605469-14.539062-2.96875-21.878906zm0 0" fill="#ffb531"/><path d="m287.921875 408h62.671875c-.800781-2.292969-1.945312-4.449219-3.394531-6.398438l-24.3125-32.410156c-9.84375 14.460938-21.605469 27.515625-34.964844 38.808594zm0 0" fill="#48add9"/><path d="m351.617188 411.839844c-.238282-1.304688-.582032-2.589844-1.023438-3.839844h-62.671875c-14.542969 12.265625-30.660156 22.53125-47.921875 30.519531 2.5625.953125 5.269531 1.453125 8 1.480469h80c7.082031.019531 13.808594-3.09375 18.371094-8.511719s6.492187-12.578125 5.269531-19.550781zm0 0" fill="#ffa912"/><path d="m336 368h-72c-8.835938 0-16-7.164062-16-16v-16l-3.03125-3.03125c-3.183594-3.183594-4.96875-7.5-4.96875-12 .003906-9.371094 7.597656-16.964844 16.96875-16.96875h79.03125zm0 0" fill="#fec9a3"/><path d="m392 296h-56v16h56c4.417969 0 8-3.582031 8-8s-3.582031-8-8-8zm0 0" fill="#c7c7c5"/><path d="m192 80h16v16h-16zm0 0"/><path d="m272 80h16v16h-16zm0 0"/><path d="m40 376h14.238281c13.800781.050781 26.640625-7.066406 33.90625-18.800781l30.800781-49.230469 17.054688-29.816406v193.847656c0 4.417969 3.582031 8 8 8h192c4.417969 0 8-3.582031 8-8v-28.3125l.183594-.09375c.457031-.273438.800781-.554688 1.265625-.800781.246093-.160157.488281-.3125.726562-.480469s.640625-.390625.921875-.601562c1.0625-.777344 2.066406-1.640626 3-2.574219.070313-.066407.132813-.160157.207032-.226563.296874-.285156.558593-.597656.839843-.894531.453125-.433594.882813-.894531 1.289063-1.375 1.578125-1.8125 2.921875-3.8125 4-5.960937.230468-.480469.453125-.96875.65625-1.480469.046875-.09375.070312-.183594.117187-.277344.121094-.273437.242188-.539063.351563-.800781l.082031-.175782c.40625-.902343.730469-1.839843.960937-2.800781.152344-.441406.167969-.800781.277344-1.257812.210938-.796875.402344-1.597657.546875-2.398438 0-.167969.085938-.328125.101563-.496093v-.160157c.320312-1.589843.476562-3.210937.472656-4.832031.023438-1.550781-.097656-3.097656-.359375-4.625 0-.238281-.074219-.453125-.105469-.695312v-.085938c-.113281-.902344-.304687-1.789062-.574218-2.65625-.195313-.738281-.429688-1.460938-.703126-2.167969-.050781-.144531-.066406-.296875-.113281-.441406s-.160156-.265625-.222656-.40625c-1.039063-2.90625-2.492187-5.640625-4.320313-8.121094l-9.601562-12.800781v-8h64c22.082031-.027344 39.972656-17.917969 40-40v-22.960938c-.027344-7.378906-2.070312-14.609374-5.902344-20.910156l-38.320312-62.25c-14.414063-23.609375-40.117188-37.972656-67.777344-37.878906h-48.207031c20.242187-15.046875 32.183593-38.777344 32.207031-64v-1.472656c9.554688-3.378906 15.957031-12.394532 16-22.527344v-32c-.046875-10.296875-6.660156-19.417969-16.433594-22.664062-3.398437-28.121094-27.238281-49.289063-55.566406-49.335938h-128c-4.417969 0-8 3.582031-8 8-.027344 18.402344 8.492188 35.769531 23.054688 47.015625-4.511719 4.5-7.050782 10.609375-7.054688 16.984375v32c.042969 10.132812 6.445312 19.148438 16 22.527344v1.472656c.023438 25.222656 11.964844 48.953125 32.207031 64h-48.207031c-8.148438.015625-16.246094 1.308594-24 3.824219v-99.824219c0-4.417969-3.582031-8-8-8h-48c-4.417969 0-8 3.582031-8 8v24h-16c-22.082031.027344-39.9726562 17.917969-40 40v176c.0273438 22.082031 17.917969 39.972656 40 40zm224.488281-144.929688-11.542969-23.070312h27.6875zm-65.121093-23.070312h27.6875l-11.542969 23.070312zm40.632812 9.886719 14.046875 28.097656-14.046875 20.070313-14.046875-20.070313zm56 78.113281h-16v-16h16zm32 16v48h-64c-4.417969 0-8-3.582031-8-8v-16c0-2.121094-.84375-4.15625-2.34375-5.65625l-3.03125-3.03125c-2.566406-2.566406-3.335938-6.425781-1.949219-9.777344 1.390625-3.351562 4.664063-5.539062 8.292969-5.535156zm26.207031-16h-10.207031v-17.871094zm-95.671875 79.3125c1.789063.441406 3.621094.671875 5.464844.6875h54l18 24h-96zm85.234375 43v.238281c-.105469.417969-.183593.839844-.242187 1.265625-.160156.671875-.367188 1.332032-.617188 1.976563l-.0625.152343c-.109375.222657-.207031.453126-.289062.6875-.269532.570313-.570313 1.125-.902344 1.664063-.28125.472656-.597656.921875-.945312 1.351563-.316407.433593-.65625.851562-1.023438 1.246093l-.320312.378907c-.085938.085937-.199219.167968-.277344.253906-.644532.625-1.335938 1.195312-2.074219 1.703125l-.070313.050781c-.609374.386719-1.242187.730469-1.898437 1.03125-.519531.253906-1.054687.480469-1.597656.671875-.671875.253906-1.355469.46875-2.050781.640625l-.300782.0625c-1.019531.207031-2.058594.3125-3.097656.3125h-80c-1.046875-.003906-2.085938-.105469-3.113281-.3125l-.253907-.054688c-.703124-.171874-1.398437-.386718-2.074218-.648437-.542969-.191406-1.078125-.417969-1.597656-.671875-.550782-.261719-1.085938-.550781-1.601563-.871094l-.527344-.351562c-.710937-.496094-1.382812-1.046875-2.007812-1.648438l-.257813-.257812c-.457031-.488282-.886718-1.007813-1.277344-1.550782-.324218-.410156-.625-.835937-.898437-1.28125-.335937-.542968-.640625-1.101562-.910156-1.679687-.066407-.160156-.113281-.335937-.191407-.496094-.070312-.195312-.15625-.382812-.25-.566406-.289062-.738281-.523437-1.496094-.703124-2.265625 0-.175781-.039063-.351562-.0625-.519531-.027344-.167969 0-.175781 0-.273438-.160157-.839843-.253907-1.695312-.273438-2.550781h112c-.019531.773438-.097656 1.546875-.230469 2.3125zm-15.769531 45.6875h-80v-16h80zm62.152344-225.726562 38.28125 62.183593c2.3125 3.789063 3.546875 8.140625 3.566406 12.582031v22.960938c0 13.253906-10.746094 24-24 24h-64v-48h48v-16h-19.359375l-29.695313-52c-1.804687-3.152344-5.503906-4.695312-9.015624-3.753906-3.507813.9375-5.941407 4.121094-5.929688 7.753906v48h-16v-24c0-4.417969-3.582031-8-8-8h-32c-4.417969 0-8 3.582031-8 8v24h-7.03125c-3.070312.019531-6.113281.605469-8.96875 1.734375v-15.199219l21.886719-31.261718 30.28125-43.273438h35.832031c22.101562-.074219 42.636719 11.40625 54.152344 30.273438zm-70.152344-134.273438c0 4.417969-3.582031 8-8 8h-52.6875l-13.65625-13.65625c-3.125-3.121094-8.1875-3.121094-11.3125 0l-13.65625 13.65625h-52.6875c-4.417969 0-8-3.582031-8-8v-32c0-4.417969 3.582031-8 8-8h144c4.417969 0 8 3.582031 8 8zm-175.273438-88h119.273438c19 .019531 35.375 13.386719 39.199219 32h-133.3125l-1.6875-.800781c-12.316407-6.105469-21.019531-17.671875-23.472657-31.199219zm31.273438 112h48c2.121094 0 4.15625-.84375 5.65625-2.34375l10.34375-10.34375 10.34375 10.34375c1.5 1.5 3.535156 2.34375 5.65625 2.34375h48c0 35.347656-28.652344 64-64 64s-64-28.652344-64-64zm-32 80h35.832031l30.28125 43.246094 21.886719 31.273437v101.480469l-9.703125 12.929688c-1.820313 2.480468-3.261719 5.21875-4.28125 8.125 0 .097656-.113281.175781-.152344.273437-.039062.097656 0 .191406-.070312.28125-.28125.796875-.535157 1.519531-.609375 1.839844-.355469 1.035156-.59375 2.109375-.710938 3.199219v.039062c-.324218 1.753906-.480468 3.53125-.472656 5.3125-.015625 1.59375.125 3.1875.425781 4.753906v.15625c0 .167969.085938.328125.101563.496094.144531.800781.335937 1.601562.542968 2.402344.113282.421875.128907.800781.28125 1.253906.230469.964844.550782 1.902344.960938 2.800781l.078125.183594c.105469.265625.226563.519531.34375.800781.050781.113282.082031.207032.136719.320313.234375.558593.496094 1.136719.847656 1.839843 1.039062 2.019532 2.328125 3.902344 3.832031 5.601563.535157.746094 1.152344 1.429687 1.839844 2.039063 1.0625 1.070312 2.199219 2.058593 3.410156 2.960937.375.285156.800781.550781 1.191407.796875l.207031.144531c.503906.328125 1.105469.707031 1.785156 1.121094v20.328125h-79.984375v-48h48v-16h-48v-96h48v-16h-48v-40c-.003906-3.640625-2.464844-6.820312-5.988281-7.738281-3.523438-.914063-7.21875.664062-8.996094 3.84375l-31.800781 55.65625-30.648438 48.964843c-4.355468 7.039063-12.050781 11.304688-20.328125 11.273438h-14.238281c-13.253906 0-24-10.746094-24-24v-136h40v112h16v-36.449219c4.84375 2.878907 10.367188 4.417969 16 4.449219 17.671875 0 32-14.328125 32-32v-35.199219c7.601562-3.175781 15.761719-4.808593 24-4.800781zm-40 8h-32v-16h32zm-32 16h32v16c0 8.835938-7.164062 16-16 16s-16-7.164062-16-16zm0-128h32v16h-32zm-56 56c0-13.253906 10.746094-24 24-24h64v48h-88zm0 0"/><path d="m230.113281 144h-6.113281v16h6.113281c13-.003906 25.820313-3.015625 37.460938-8.800781l-7.148438-14.320313c-9.421875 4.679688-19.796875 7.117188-30.3125 7.121094zm0 0"/><path d="m80 48v-16h16v-16h-16v-16h-16v16h-16v16h16v16zm0 0"/><path d="m0 72c0 13.253906 10.746094 24 24 24s24-10.746094 24-24-10.746094-24-24-24-24 10.746094-24 24zm32 0c0 4.417969-3.582031 8-8 8s-8-3.582031-8-8 3.582031-8 8-8 8 3.582031 8 8zm0 0"/></svg>