<?xml version="1.0" encoding="iso-8859-1"?>
<!-- Generator: Adobe Illustrator 19.0.0, SVG Export Plug-In . SVG Version: 6.00 Build 0)  -->
<svg version="1.1" id="Capa_1" xmlns="http://www.w3.org/2000/svg" xmlns:xlink="http://www.w3.org/1999/xlink" x="0px" y="0px"
	 viewBox="0 0 512 512" style="enable-background:new 0 0 512 512;" xml:space="preserve">
<path style="fill:#C6C5CA;" d="M271.569,60.248l-15.568,31.956l-15.568-31.956c-58.486,7.628-103.65,57.641-103.65,118.207v53.692
	l119.218-29.476l119.219,29.477v-53.693C375.219,117.889,330.055,67.876,271.569,60.248z"/>
<g>
	<polygon style="fill:#898890;" points="364.63,224.675 364.63,191.51 275.631,176.51 186.632,191.51 186.632,224.675 
		275.631,202.671 	"/>
	<path style="fill:#898890;" d="M275.631,60.857c-1.347-0.223-2.7-0.432-4.062-0.609l-0.732,1.503
		C272.423,61.421,274.022,61.124,275.631,60.857z"/>
	<polygon style="fill:#898890;" points="295.261,202.671 275.631,207.524 375.219,232.148 375.219,222.441 	"/>
	<path style="fill:#898890;" d="M176.043,178.455c0-47.993,28.362-89.354,69.237-108.256l-4.848-9.951
		c-58.486,7.628-103.65,57.641-103.65,118.207v53.692l39.26-9.707v-43.985H176.043z"/>
	<polygon style="fill:#898890;" points="392.146,332.751 256.001,400.606 119.85,332.751 119.85,236.333 256.001,202.671 
		392.146,236.333 	"/>
</g>
<polygon style="fill:#57565C;" points="163.85,332.751 163.85,236.333 278,208.11 256.001,202.671 119.85,236.333 119.85,332.751 
	256.001,400.606 278,389.642 "/>
<polygon style="fill:#FF7956;" points="272.062,59.237 256.001,92.204 239.939,59.237 248.128,7.5 263.874,7.5 "/>
<polygon style="fill:#FF3F62;" points="254.776,59.237 262.964,7.5 248.128,7.5 239.939,59.237 256.001,92.204 263.419,76.978 "/>
<polygon style="fill:#898890;" points="344.999,224.675 344.999,191.51 256,176.51 167.001,191.51 167.001,224.675 256.001,202.671 
	"/>
<path style="fill:#C6C5CA;" d="M350.46,353.528l-94.459,47.078l-94.454-47.074l-99.604,29.106
	C96.747,454.749,170.563,504.5,255.998,504.5c85.441,0,159.26-49.757,194.062-121.876L350.46,353.528z"/>
<g>
	<path style="fill:#898890;" d="M115.943,382.638l65.563-19.159l-19.959-9.947l-99.604,29.106
		C96.747,454.749,170.563,504.5,255.998,504.5c9.145,0,18.155-0.574,27-1.681C209.209,493.589,147.022,447.03,115.943,382.638z"/>
	<polygon style="fill:#898890;" points="310.001,400.606 384.505,363.473 350.46,353.528 283,387.15 	"/>
</g>
<g>
	<path style="fill:#FFFFFF;" d="M349.687,154.443c-3.176-12.347-8.688-23.802-16.387-34.048l-11.992,9.01
		c6.509,8.664,11.169,18.345,13.852,28.774L349.687,154.443z"/>
	<path style="fill:#FFFFFF;" d="M285.261,102.126c4.257,1.634,8.407,3.647,12.337,5.983l7.664-12.895
		c-4.657-2.768-9.578-5.154-14.624-7.091L285.261,102.126z"/>
	<path style="fill:#FFFFFF;" d="M315.408,122.398l10.918-10.285c-3.71-3.939-7.772-7.589-12.075-10.849l-9.059,11.956
		C308.831,115.978,312.269,119.065,315.408,122.398z"/>
	<path style="fill:#FFFFFF;" d="M351.788,439.032c-10.877,6.969-22.535,12.75-34.651,17.18l5.152,14.088
		c13.144-4.807,25.792-11.077,37.592-18.638c4.753-3.045,9.424-6.335,13.884-9.776l-9.164-11.876
		C360.485,433.185,356.174,436.221,351.788,439.032z"/>
	<path style="fill:#FFFFFF;" d="M372.037,423.946l9.787,11.366c3.928-3.382,7.764-6.963,11.402-10.646l-10.67-10.543
		C379.2,417.521,375.66,420.825,372.037,423.946z"/>
	<path style="fill:#FFFFFF;" d="M410.209,404.994l-11.988-9.017c-2.872,3.819-5.937,7.568-9.107,11.143l11.223,9.953
		C403.772,413.198,407.095,409.134,410.209,404.994z"/>
</g>
<g>
	<path style="fill:#1D1D1F;" d="M399.646,337.393V230.461L352.5,218.804v-33.636l-88.998-15V93.934l7.062-14.496l5.327-10.934
		c52.716,9.469,91.83,55.819,91.83,109.951v33.091h15v-33.091c0-61.312-44.25-113.82-103.927-124.664L270.28,0h-28.559
		l-8.514,53.791c-59.676,10.845-103.926,63.352-103.926,124.664v33.089h15v-33.089c0-54.132,39.114-100.482,91.829-109.951
		l12.389,25.43v76.232l-89,15v33.636l-47.151,11.658v106.932l143.653,71.594L399.646,337.393z M257.468,15l6.816,43.075
		l-8.283,17.005l-8.284-17.005L254.534,15H257.468z M174.501,197.851L256,184.115l81.499,13.736v17.244l-81.498-20.15l-81.5,20.15
		V197.851z M127.35,242.205l121.151-29.954v27.292h15v-27.292l121.145,29.953v85.905l-121.145,60.38V251.257h-15v137.232
		l-121.151-60.38V242.205z"/>
	<path style="fill:#1D1D1F;" d="M178.05,121.274c-10.86,14.798-17.27,32.25-18.535,50.47l14.965,1.039
		c1.067-15.385,6.483-30.127,15.662-42.634L178.05,121.274z"/>
	
		<rect x="106.719" y="385.542" transform="matrix(0.9599 -0.2805 0.2805 0.9599 -104.8954 53.1469)" style="fill:#1D1D1F;" width="53.022" height="15.001"/>
	<path style="fill:#1D1D1F;" d="M177.421,465.318l6.115-13.697c-4.361-1.947-8.697-4.098-12.888-6.394l-7.207,13.155
		C167.986,460.873,172.69,463.206,177.421,465.318z"/>
	<path style="fill:#1D1D1F;" d="M201.826,474.278l4.203-14.398c-4.588-1.34-9.176-2.884-13.634-4.59l-5.359,14.01
		C191.872,471.15,196.849,472.825,201.826,474.278z"/>
	<path style="fill:#1D1D1F;" d="M227.214,479.859l2.225-14.834c-4.732-0.709-9.486-1.62-14.132-2.708l-3.418,14.605
		C216.927,478.102,222.083,479.09,227.214,479.859z"/>
	<rect x="215.501" y="232.33" style="fill:#1D1D1F;" width="15" height="124.19"/>
	<rect x="180.591" y="330.48" style="fill:#1D1D1F;" width="15" height="15"/>
	<rect x="180.591" y="241.38" style="fill:#1D1D1F;" width="15" height="54.1"/>
	<rect x="180.591" y="305.48" style="fill:#1D1D1F;" width="15" height="15"/>
	<rect x="145.691" y="249" style="fill:#1D1D1F;" width="15" height="77.861"/>
	<rect x="281.501" y="232.33" style="fill:#1D1D1F;" width="15" height="15"/>
	<rect x="281.501" y="257.33" style="fill:#1D1D1F;" width="15" height="15"/>
	<rect x="281.501" y="282.33" style="fill:#1D1D1F;" width="15" height="74.19"/>
	<rect x="316.401" y="241.38" style="fill:#1D1D1F;" width="15" height="104.1"/>
	<rect x="351.311" y="249" style="fill:#1D1D1F;" width="15" height="77.861"/>
	<path style="fill:#1D1D1F;" d="M380.831,354.586l-4.207,14.398l62.645,18.301c-34.783,64.732-102.319,106.876-175.771,109.574V422
		h-15v74.859c-73.446-2.698-140.98-44.836-175.765-109.562l62.651-18.308l-4.207-14.397l-79.839,23.331l3.849,7.975
		c17.962,37.214,45.885,68.691,80.75,91.028C171.754,499.872,213.27,512,255.998,512c42.73,0,84.249-12.13,120.066-35.079
		c34.867-22.339,62.79-53.82,80.75-91.038l3.849-7.976L380.831,354.586z"/>
</g>
<g>
</g>
<g>
</g>
<g>
</g>
<g>
</g>
<g>
</g>
<g>
</g>
<g>
</g>
<g>
</g>
<g>
</g>
<g>
</g>
<g>
</g>
<g>
</g>
<g>
</g>
<g>
</g>
<g>
</g>
</svg>
