<svg height="511pt" viewBox="-43 1 511 511.99963" width="511pt" xmlns="http://www.w3.org/2000/svg"><g fill-rule="evenodd"><path d="m115.601562 356.519531c-18.300781 10.007813-33.996093 21.914063-45.996093 36.683594-20.972657 25.824219-30.734375 60.410156-23.722657 108.742187 34.617188.027344 69.265626.027344 103.882813.054688h128.539063c34.648437-.027344 69.292968-.027344 103.914062-.054688 6.609375-45.640624-4.429688-81.699218-25.824219-108.742187-11.378906-14.34375-25.652343-26.164063-41.769531-35.492187-8.9375 10.402343-23.097656 18.992187-44.464844 9.921874-1.472656-.625-2.890625-1.277343-4.3125-1.929687-21.988281 26.761719-45.738281 68.546875-50.25 85.921875-3.917968-17.007812-25.398437-60.746094-46.113281-87.960938-2.722656 1.386719-5.53125 2.71875-8.453125 3.96875-22.164062 9.410157-36.550781-.171874-45.429688-11.113281zm0 0" fill="#e8b3ce"/><path d="m312.386719 275.046875c.226562 21.460937-6.640625 38.753906-17.878907 51.964844 8.824219 7.171875 15.4375 11.226562 31.582032 12.246093-1.957032 3.96875-5.589844 11.59375-11.464844 18.453126 16.117188 9.324218 30.390625 21.148437 41.769531 35.492187-8.484375-49.296875 24.601563-93.859375 59.105469-125.867187h-103.113281zm0 0" fill="#d675a7"/><path d="m135.777344 327.746094c-11.835938-13.125-19.183594-30.246094-19.183594-51.363282l-.058594-9.042968h-106.039062c34.507812 32.003906 67.59375 76.566406 59.109375 125.863281 12-14.769531 27.695312-26.675781 45.996093-36.679687-5.304687-6.523438-8.65625-13.523438-10.5-17.265626 15.578126-.992187 22.304688-4.820312 30.675782-11.511718zm0 0" fill="#d675a7"/><path d="m215.597656 324.117188s-16.148437 23.984374-46.113281 39.546874c20.714844 27.214844 42.195313 70.953126 46.113281 87.960938 4.511719-17.375 28.261719-59.160156 50.25-85.921875-32.628906-15.390625-50.25-41.585937-50.25-41.585937zm0 0" fill="#e8e7e9"/><path d="m169.484375 363.664062c29.964844-15.5625 46.113281-39.542968 46.113281-39.542968s-33.742187-30.277344-58.484375-13.042969c-9.730469 6.777344-15.890625 12.332031-21.335937 16.671875-8.371094 6.6875-15.097656 10.515625-30.675782 11.507812 1.84375 3.742188 5.195313 10.742188 10.5 17.265626 8.882813 10.941406 23.265626 20.523437 45.429688 11.109374 2.921875-1.246093 5.730469-2.578124 8.453125-3.96875zm0 0" fill="#f9f9f9"/><path d="m215.597656 324.117188s17.621094 26.195312 50.25 41.585937c1.421875.652344 2.839844 1.304687 4.3125 1.929687 21.367188 9.070313 35.527344.480469 44.464844-9.921874 5.875-6.859376 9.507812-14.484376 11.464844-18.453126-16.144532-1.023437-22.757813-5.074218-31.582032-12.246093-5.222656-4.226563-11.207031-9.527344-20.429687-15.933594-24.742187-17.234375-58.480469 13.039063-58.480469 13.039063zm0 0" fill="#f9f9f9"/><path d="m157.113281 311.078125c24.742188-17.234375 58.484375 13.039063 58.484375 13.039063s33.738282-30.273438 58.480469-13.039063c9.222656 6.40625 15.207031 11.707031 20.429687 15.933594 11.238282-13.210938 18.105469-30.503907 17.878907-51.964844v-56.523437c-25.964844 5.101562-60.953125 8.21875-99.488281 8.21875-28.003907 0-54.140626-1.640626-76.300782-4.503907-7.121094-.910156-13.789062-1.957031-20.003906-3.121093v57.265624c0 21.117188 7.347656 38.238282 19.179688 51.363282 5.449218-4.335938 11.609374-9.890625 21.339843-16.667969zm0 0" fill="#ffddcf"/><path d="m136.597656 222.238281c22.164063 2.863281 48.296875 4.503907 76.304688 4.503907 38.53125 0 73.519531-3.117188 99.484375-8.21875 28.035156-5.5 45.511719-13.269532 45.511719-21.914063 0-10.914063-27.976563-20.496094-69.886719-25.769531-17.992188 20.667968-138.558594 21.234375-153.3125 0l.054687-.082032c-40.207031 5.355469-66.824218 15.191407-66.824218 25.851563 0 8.957031 18.785156 17.007813 48.664062 22.507813 6.214844 1.164062 12.882812 2.210937 20.003906 3.121093zm0 0" fill="#e8b3ce"/><path d="m134.699219 170.839844c14.753906 21.234375 135.320312 20.667968 153.3125 0l-40.863281-98.648438c-19.632813-57.289062 65.691406-57.601562 57.179687-59.5-14.5-1.390625-28.320313-2.722656-41.289063-2.722656h-.394531c-37.710937.027344-68.046875 11.3125-86.375 64.859375l-41.511719 95.929687zm0 0" fill="#e8b3ce"/><path d="m266.105469 117.972656c-36.804688 11.3125-72.953125 11.082032-108.507813 0l-22.84375 52.785156-.054687.082032c14.753906 21.234375 135.320312 20.667968 153.3125 0zm0 0" fill="#ff6977"/></g><path d="m179.757812 277.335938h.253907c5.523437 0 10-4.476563 10-10 0-5.519532-4.476563-9.996094-10-9.996094h-.253907c-5.523437 0-9.996093 4.476562-9.996093 9.996094 0 5.523437 4.476562 10 9.996093 10zm0 0"/><path d="m250.667969 277.335938h.257812c5.519531 0 9.996094-4.476563 9.996094-10 0-5.519532-4.476563-9.996094-9.996094-9.996094h-.257812c-5.523438 0-9.996094 4.476562-9.996094 9.996094 0 5.523437 4.476563 10 9.996094 10zm0 0"/><path d="m424.808594 263.6875c-1.5-3.828125-5.195313-6.347656-9.304688-6.347656h-93.121094v-30.707032c31.011719-7.058593 45.515626-16.648437 45.515626-30.023437 0-15.070313-19.441407-22.09375-25.832032-24.402344-11.730468-4.238281-27.90625-7.84375-47.023437-10.511719l-38.53125-93.03125c-3.296875-9.769531-3.078125-17.582031.65625-23.871093 8.765625-14.765625 34.996093-19.246094 44.871093-20.933594 1.546876-.261719 2.769532-.472656 3.753907-.679687 8.28125-1.765626 9.078125-8.078126 9.128906-9.96875.101563-4.160157-2.457031-8.949219-8.417969-10.28125-.402344-.089844-.8125-.152344-1.226562-.191407l-.148438-.015625c-57.046875-5.453125-110.925781-10.605468-138.1875 68.488282l-39.15625 90.433593c-18.242187 2.707031-33.753906 6.382813-45.089844 10.710938-6.125 2.339843-24.761718 9.460937-24.761718 24.253906 0 14.976563 19.148437 21.96875 25.441406 24.265625 6.445312 2.355469 14.273438 4.519531 23.222656 6.445312v30.019532h-96.101562c-4.109375 0-7.804688 2.519531-9.304688 6.347656-1.503906 3.824219-.507812 8.183594 2.507813 10.980469 42.644531 39.554687 61.601562 78.039062 56.414062 114.441406-4.238281 5.460937-7.964843 11.191406-11.183593 17.214844-14.292969 26.742187-18.527344 58.492187-12.941407 97.054687.710938 4.914063 4.921875 8.558594 9.886719 8.5625 20.53125.015625 41.699219.019532 62.871094.027344 21.164062.007812 42.332031.015625 62.859375.027344h.007812c5.519531 0 9.992188-4.46875 9.996094-9.988282.003906-5.523437-4.46875-10.003906-9.988281-10.007812-20.53125-.011719-41.699219-.019531-62.871094-.027344-18.152344-.003906-36.304688-.011718-54.054688-.023437-6.046874-56.617188 12.421876-94.988281 59.035157-122.804688.664062.613281 1.34375 1.21875 2.046875 1.804688 6.425781 5.367187 15.796875 10.511719 28.113281 10.511719 6.257813 0 13.273437-1.328126 21.046875-4.628907.453125-.191406.894531-.394531 1.34375-.589843 18.746094 26.761718 36.472656 64.144531 39.574219 77.628906 1.035156 4.488281 5 7.6875 9.605469 7.753906h.140624c4.546876 0 8.527344-3.074219 9.675782-7.484375 3.722656-14.34375 23.359375-49.9375 43.652344-76.242187 6.71875 2.523437 12.84375 3.566406 18.375 3.566406 12.3125 0 21.6875-5.144532 28.109374-10.511719.242188-.203125.46875-.410156.703126-.617187 11.046874 7.128906 22.195312 16.3125 31.726562 28.03125.445312.738281.980469 1.410156 1.585938 2 16.671874 21.417968 27.894531 51.011718 23.9375 91.585937-17.863282.011719-37.125.015625-56.386719.023437-22.488281.007813-44.976563.011719-65.238281.027344-5.519532.003906-9.992188 4.484375-9.988282 10.003906.003906 5.519532 4.476563 9.992188 9.996094 9.992188h.007812c20.257813-.015625 42.746094-.019531 65.230469-.027344 22.488281-.007812 44.980469-.015625 65.238281-.027344 4.964844-.003906 9.175782-3.652343 9.886719-8.566406 6.433594-44.390625-2.785156-83.464844-26.226562-114.292968-5.175781-36.390626 13.785156-74.871094 56.417969-114.417969 3.011718-2.796875 4.007812-7.152344 2.503906-10.980469zm-239.082032-185.621094c13.425782-39.207031 32.4375-49.523437 45.566407-53.871094 6.898437-2.285156 14.328125-3.492187 22.261719-3.980468-5.355469 3.8125-10.109376 8.523437-13.578126 14.371094-6.851562 11.539062-7.617187 25.28125-2.285156 40.847656.070313.195312.144532.390625.222656.585937l14.628907 35.316407c-27.152344 6.617187-54.386719 6.640624-81.21875.074218l14.117187-32.609375c.105469-.238281.199219-.484375.285156-.734375zm-22.449218 51.929688c16.027344 4.222656 32.179687 6.339844 48.378906 6.339844 16.1875 0 32.421875-2.113282 48.621094-6.328126l15.46875 37.351563c-12.386719 5.664063-44.359375 10.863281-83.277344 8.742187-25.808594-1.40625-39.433594-5.367187-45.566406-8.289062zm-84.320313 66.589844c4.28125-3.433594 18.652344-10.304688 52.136719-15.21875 10.179688 8.136718 30.394531 13.074218 60.285156 14.703124 5.023438.273438 10.941406.445313 17.386719.445313 27.960937 0 65.746094-3.21875 82.386719-15.175781 35.75 4.878906 51.0625 11.796875 55.640625 15.273437-3.480469 2.65625-13.332031 7.46875-34.914063 11.824219-.984375.050781-1.929687.238281-2.816406.554688-.625.117187-1.253906.238281-1.898438.355468-25.933593 4.769532-59.410156 7.398438-94.261718 7.398438-26.671875 0-52.617188-1.527344-75.019532-4.421875-7.082031-.917969-13.386718-1.90625-19.003906-2.929688-.289062-.066406-.582031-.121093-.882812-.164062-24.355469-4.523438-35.347656-9.730469-39.039063-12.644531zm56.359375 35.566406c23.242188 3.003906 50.070313 4.589844 77.585938 4.589844 32.691406 0 63.8125-2.21875 89.488281-6.300782v44.605469.105469c.148437 14.148437-3.125 26.6875-9.726563 37.417968-3.5625-2.878906-7.75-6.132812-12.871093-9.695312-23.613281-16.449219-51.601563-.523438-64.195313 8.53125-12.589844-9.054688-40.578125-24.980469-64.191406-8.535156-5.695312 3.960937-10.25 7.550781-14.058594 10.65625-7.136718-10.695313-10.753906-23.148438-10.753906-37.148438v-45.449218c2.839844.429687 5.746094.839843 8.722656 1.222656zm-54.8125 135.984375c-1.449218-16.199219-6.625-32.628907-15.539062-49.109375-7.515625-13.890625-17.695313-27.851563-30.390625-41.691406h72.042969c.175781 17.824218 5.210937 34.257812 14.703124 48.160156-4.28125 2.167968-9.082031 3.285156-16.855468 3.785156-3.335938.210938-6.347656 2.082031-8.019532 4.976562-1.671874 2.894532-1.785156 6.433594-.304687 9.433594l.300781.609375c1.109375 2.246094 2.6875 5.4375 4.8125 9.015625-7.59375 4.660156-14.496094 9.59375-20.75 14.820313zm40.476563-21.253907c11.03125-2.996093 17.535156-8.378906 25.664062-15.105468 4.378907-3.625 9.339844-7.734375 16.183594-12.492188 12-8.359375 28.902344.246094 38.558594 6.667969-7.695313 8.773437-22.746094 23.339844-44.265625 32.476563-14.867188 6.316406-26.117188 2.894531-36.140625-11.546876zm95.175781 77.539063c-8.007812-17.902344-19.90625-39.835937-32.101562-57.621094 14.304687-9.015625 24.886718-19.285156 31.542968-26.738281 7.183594 8.050781 18.960938 19.382812 35.054688 28.875-12.664063 16.964844-25.632813 37.976562-34.496094 55.484375zm57.914062-65.992187c-21.375-9.074219-36.492187-23.691407-44.238281-32.492188 9.65625-6.421875 26.539063-15.007812 38.535157-6.652344 6.839843 4.757813 11.804687 8.867188 16.183593 12.492188 8.128907 6.726562 14.628907 12.109375 25.664063 15.105468-10.027344 14.441407-21.277344 17.859376-36.144532 11.546876zm86.964844-39.402344c-8.792968 16.257812-13.957031 32.464844-15.484375 48.453125-5.132812-4.457031-10.652343-8.664063-16.5625-12.597657 2.613281-4.203124 4.492188-8.007812 5.761719-10.582031l.300781-.609375c1.484375-2.996094 1.371094-6.539062-.304687-9.433594-1.671875-2.898437-4.679688-4.765624-8.015625-4.980468-8.570313-.546875-13.527344-1.847656-18.160157-4.480469 8.851563-13.683594 13.566407-29.859375 13.789063-47.460937h69.0625c-12.691406 13.839843-22.871094 27.800781-30.386719 41.691406zm0 0"/><path d="m211.792969 492.003906h-.195313c-5.523437 0-10 4.476563-10 9.996094 0 5.523438 4.476563 10 10 10h.195313c5.523437 0 9.996093-4.476562 9.996093-10 0-5.519531-4.472656-9.996094-9.996093-9.996094zm0 0"/></svg>